<svg width="200" height="200" viewBox="0 0 200 200" fill="none" xmlns="http://www.w3.org/2000/svg">
<rect x="12" y="12" width="176" height="177" fill="#005DB6"/>
<path fill-rule="evenodd" clip-rule="evenodd" d="M45.9987 77.2389C54.8782 77.2389 62.0764 70.0519 62.0764 61.1864C62.0764 52.3208 54.8782 45.1339 45.9987 45.1339C37.1193 45.1339 29.9211 52.3208 29.9211 61.1864C29.9211 70.0519 37.1193 77.2389 45.9987 77.2389ZM46.0601 74.7881C53.6178 74.7881 59.7445 68.671 59.7445 61.1251C59.7445 53.5792 53.6178 47.4621 46.0601 47.4621C38.5024 47.4621 32.3757 53.5792 32.3757 61.1251C32.3757 68.671 38.5024 74.7881 46.0601 74.7881Z" fill="white"/>
<path d="M49.4352 56.2848L47.0419 58.6743V51.2608C46.8579 50.158 45.201 50.0354 45.0169 51.2608V61.4314C45.0783 62.1054 46.0601 62.473 46.6738 61.9829L50.9079 57.6328C51.583 56.5912 50.5398 55.5496 49.4352 56.2848Z" fill="white"/>
<path fill-rule="evenodd" clip-rule="evenodd" d="M49.3738 102.849H36.4871V144.941H42.5623C38.2667 152.539 42.01 160.932 48.3306 163.077H29.7984V168.836H170.018V163.077H145.594C153.817 158.604 154.185 149.72 151.056 145.064H167.87V109.221H159.217V119.943H141.974V90.0441H167.87V81.1601H133.383V102.849H101.166V95.3746C99.6932 84.8976 85.0883 85.1426 83.7996 95.3746V102.849H60.1741V85.5102H49.3738V102.849ZM59.8672 163.077H90.1816C84.1065 159.646 81.6518 152.539 85.3951 145.493H64.6537C68.3356 153.151 65.4515 159.83 59.8672 163.077ZM108.039 145.003C111.414 151.865 109.696 158.972 102.639 163.077H134.119C126.51 159.094 125.344 151.252 128.596 145.003H108.039Z" fill="white"/>
<path d="M170.018 54.2018V28.8364H31.3938C29.6756 29.0202 29.2461 31.5935 31.3938 32.0223L170.018 54.2018Z" fill="white"/>
<path fill-rule="evenodd" clip-rule="evenodd" d="M2 23.2606C3.10455 10.0878 11.757 3.16437 23.2323 2H176.768C187.71 2 198 10.33 198 23.8733V175.392C198 190.282 189.18 197.816 177.32 197.816L22.9869 198C11.2661 196.897 3.16595 188.381 2 177.781V23.2606ZM186.832 24.4247V175.392C186.832 181.524 182.994 186.665 177.32 186.665H24.4596C17.464 186.236 13.598 182.193 13.1684 175.698V24.8536C13.4752 17.9302 17.6481 13.7639 23.9073 13.2737L175.909 13.2737C182.291 13.7639 186.586 18.1753 186.832 24.4247Z" fill="white"/>
<rect x="0.5" y="0.5" width="199" height="199" stroke="black"/>
</svg>
